<svg id="mermaid-1777262439010" width="100%" xmlns="http://www.w3.org/2000/svg" class="statediagram" height="466" style="max-width: 4320.845703125px;" viewBox="0.5 0 2469.0546875 466"><style>#mermaid-1777262439010 {font-family:"trebuchet ms",verdana,arial,sans-serif;font-size:16px;fill:#333;}#mermaid-1777262439010 .error-icon{fill:#552222;}#mermaid-1777262439010 .error-text{fill:#552222;stroke:#552222;}#mermaid-1777262439010 .edge-thickness-normal{stroke-width:2px;}#mermaid-1777262439010 .edge-thickness-thick{stroke-width:3.5px;}#mermaid-1777262439010 .edge-pattern-solid{stroke-dasharray:0;}#mermaid-1777262439010 .edge-pattern-dashed{stroke-dasharray:3;}#mermaid-1777262439010 .edge-pattern-dotted{stroke-dasharray:2;}#mermaid-1777262439010 .marker{fill:#333333;stroke:#333333;}#mermaid-1777262439010 .marker.cross{stroke:#333333;}#mermaid-1777262439010 svg{font-family:"trebuchet ms",verdana,arial,sans-serif;font-size:16px;}#mermaid-1777262439010 defs #statediagram-barbEnd{fill:#333333;stroke:#333333;}#mermaid-1777262439010 g.stateGroup text{fill:#9370DB;stroke:none;font-size:10px;}#mermaid-1777262439010 g.stateGroup text{fill:#333;stroke:none;font-size:10px;}#mermaid-1777262439010 g.stateGroup .state-title{font-weight:bolder;fill:#131300;}#mermaid-1777262439010 g.stateGroup rect{fill:#ECECFF;stroke:#9370DB;}#mermaid-1777262439010 g.stateGroup line{stroke:#333333;stroke-width:1;}#mermaid-1777262439010 .transition{stroke:#333333;stroke-width:1;fill:none;}#mermaid-1777262439010 .stateGroup .composit{fill:white;border-bottom:1px;}#mermaid-1777262439010 .stateGroup .alt-composit{fill:#e0e0e0;border-bottom:1px;}#mermaid-1777262439010 .state-note{stroke:#aaaa33;fill:#fff5ad;}#mermaid-1777262439010 .state-note text{fill:black;stroke:none;font-size:10px;}#mermaid-1777262439010 .stateLabel .box{stroke:none;stroke-width:0;fill:#ECECFF;opacity:0.5;}#mermaid-1777262439010 .edgeLabel .label rect{fill:#ECECFF;opacity:0.5;}#mermaid-1777262439010 .edgeLabel .label text{fill:#333;}#mermaid-1777262439010 .label div .edgeLabel{color:#333;}#mermaid-1777262439010 .stateLabel text{fill:#131300;font-size:10px;font-weight:bold;}#mermaid-1777262439010 .node circle.state-start{fill:#333333;stroke:#333333;}#mermaid-1777262439010 .node .fork-join{fill:#333333;stroke:#333333;}#mermaid-1777262439010 .node circle.state-end{fill:#9370DB;stroke:white;stroke-width:1.5;}#mermaid-1777262439010 .end-state-inner{fill:white;stroke-width:1.5;}#mermaid-1777262439010 .node rect{fill:#ECECFF;stroke:#9370DB;stroke-width:1px;}#mermaid-1777262439010 .node polygon{fill:#ECECFF;stroke:#9370DB;stroke-width:1px;}#mermaid-1777262439010 #statediagram-barbEnd{fill:#333333;}#mermaid-1777262439010 .statediagram-cluster rect{fill:#ECECFF;stroke:#9370DB;stroke-width:1px;}#mermaid-1777262439010 .cluster-label,#mermaid-1777262439010 .nodeLabel{color:#131300;}#mermaid-1777262439010 .statediagram-cluster rect.outer{rx:5px;ry:5px;}#mermaid-1777262439010 .statediagram-state .divider{stroke:#9370DB;}#mermaid-1777262439010 .statediagram-state .title-state{rx:5px;ry:5px;}#mermaid-1777262439010 .statediagram-cluster.statediagram-cluster .inner{fill:white;}#mermaid-1777262439010 .statediagram-cluster.statediagram-cluster-alt .inner{fill:#f0f0f0;}#mermaid-1777262439010 .statediagram-cluster .inner{rx:0;ry:0;}#mermaid-1777262439010 .statediagram-state rect.basic{rx:5px;ry:5px;}#mermaid-1777262439010 .statediagram-state rect.divider{stroke-dasharray:10,10;fill:#f0f0f0;}#mermaid-1777262439010 .note-edge{stroke-dasharray:5;}#mermaid-1777262439010 .statediagram-note rect{fill:#fff5ad;stroke:#aaaa33;stroke-width:1px;rx:0;ry:0;}#mermaid-1777262439010 .statediagram-note rect{fill:#fff5ad;stroke:#aaaa33;stroke-width:1px;rx:0;ry:0;}#mermaid-1777262439010 .statediagram-note text{fill:black;}#mermaid-1777262439010 .statediagram-note .nodeLabel{color:black;}#mermaid-1777262439010 .statediagram .edgeLabel{color:red;}#mermaid-1777262439010 #dependencyStart,#mermaid-1777262439010 #dependencyEnd{fill:#333333;stroke:#333333;stroke-width:1;}#mermaid-1777262439010 :root{--mermaid-font-family:"trebuchet ms",verdana,arial,sans-serif;}</style><g><defs><marker id="statediagram-barbEnd" refX="19" refY="7" markerWidth="20" markerHeight="14" markerUnits="strokeWidth" orient="auto"><path d="M 19,7 L9,13 L14,7 L9,1 Z"></path></marker></defs><g class="root"><g class="clusters"></g><g class="edgePaths"></g><g class="edgeLabels"></g><g class="nodes"><g class="root" transform="translate(0.5, 50.5)"><g class="clusters"><g class="statediagram-state statediagram-cluster" id="Idea"><rect class="outer" x="8" y="8" width="310.09375" height="349"></rect><g class="cluster-label" transform="translate(147.4765625, 8)"><foreignObject width="31.140625" height="18"><div xmlns="http://www.w3.org/1999/xhtml" style="display: inline-block; white-space: nowrap;"><span class="nodeLabel">Idea</span></div></foreignObject></g><rect class="inner" x="8" y="25" width="310.09375" height="328"></rect></g></g><g class="edgePaths"><path d="M167.5,47L167.5,51.166666666666664C167.5,55.333333333333336,167.5,63.666666666666664,167.5,72C167.5,80.33333333333333,167.5,88.66666666666667,167.5,92.83333333333333L167.5,97" id="edge0" class=" edge-thickness-normal transition" style="fill:none" marker-end="url(#statediagram-barbEnd)"></path><path d="M167.5,130L167.5,135.66666666666666C167.5,141.33333333333334,167.5,152.66666666666666,167.5,164C167.5,175.33333333333334,167.5,186.66666666666666,167.5,192.33333333333334L167.5,198" id="edge1" class=" edge-thickness-normal transition" style="fill:none" marker-end="url(#statediagram-barbEnd)"></path><path d="M143.80422339108912,231L135.66627990924096,236.66666666666666C127.52833642739274,242.33333333333334,111.25244946369638,253.66666666666666,103.1145059818482,265C94.9765625,276.3333333333333,94.9765625,287.6666666666667,94.9765625,293.3333333333333L94.9765625,299" id="edge2" class=" edge-thickness-normal transition" style="fill:none" marker-end="url(#statediagram-barbEnd)"></path><path d="M191.19577660891088,231L199.33372009075904,236.66666666666666C207.47166357260724,242.33333333333334,223.7475505363036,253.66666666666666,231.8854940181518,265C240.0234375,276.3333333333333,240.0234375,287.6666666666667,240.0234375,293.3333333333333L240.0234375,299" id="edge3" class=" edge-thickness-normal transition" style="fill:none" marker-end="url(#statediagram-barbEnd)"></path></g><g class="edgeLabels"><g class="edgeLabel"><g class="label" transform="translate(0, 0)"><rect rx="0" ry="0" width="0" height="0"></rect><foreignObject width="0" height="0"><div xmlns="http://www.w3.org/1999/xhtml" style="display: inline-block; white-space: nowrap;"><span class="edgeLabel"></span></div></foreignObject></g></g><g class="edgeLabel" transform="translate(167.5, 164)"><g class="label" transform="translate(-20.015625, -9)"><rect rx="0" ry="0" width="40.03125" height="18"></rect><foreignObject width="40.03125" height="18"><div xmlns="http://www.w3.org/1999/xhtml" style="display: inline-block; white-space: nowrap;"><span class="edgeLabel">triage</span></div></foreignObject></g></g><g class="edgeLabel" transform="translate(94.9765625, 265)"><g class="label" transform="translate(-59.140625, -9)"><rect rx="0" ry="0" width="118.28125" height="18"></rect><foreignObject width="118.28125" height="18"><div xmlns="http://www.w3.org/1999/xhtml" style="display: inline-block; white-space: nowrap;"><span class="edgeLabel">linked to Mission</span></div></foreignObject></g></g><g class="edgeLabel" transform="translate(240.0234375, 265)"><g class="label" transform="translate(-42.2578125, -9)"><rect rx="0" ry="0" width="84.515625" height="18"></rect><foreignObject width="84.515625" height="18"><div xmlns="http://www.w3.org/1999/xhtml" style="display: inline-block; white-space: nowrap;"><span class="edgeLabel">not pursued</span></div></foreignObject></g></g></g><g class="nodes"><g class="node default" id="state-Idea_start-0" transform="translate(167.5, 40)"><circle class="state-start" r="7" width="14" height="14"></circle></g><g class="node statediagram-state" id="state-IdeaOpen-1" transform="translate(167.5, 113.5)"><rect class="outer title-state" x="-25.296875" y="-16.5" width="50.59375" height="33"></rect><line class="divider" x1="-25.296875" x2="25.296875" y1="9" y2="9"></line><g class="label" transform="translate(-17.796875, -13.5)"><foreignObject width="35.59375" height="18" transform="translate( 0, 0)"><div xmlns="http://www.w3.org/1999/xhtml" style="display: inline-block; white-space: nowrap;"><span class="nodeLabel">open</span></div></foreignObject><foreignObject width="0" height="0" transform="translate( 17.796875, 30.5)"><div xmlns="http://www.w3.org/1999/xhtml" style="display: inline-block; white-space: nowrap;"><span class="nodeLabel"></span></div></foreignObject></g></g><g class="node statediagram-state" id="state-IdeaTriaged-3" transform="translate(167.5, 214.5)"><rect class="outer title-state" x="-31.9609375" y="-16.5" width="63.921875" height="33"></rect><line class="divider" x1="-31.9609375" x2="31.9609375" y1="9" y2="9"></line><g class="label" transform="translate(-24.4609375, -13.5)"><foreignObject width="48.921875" height="18" transform="translate( 0, 0)"><div xmlns="http://www.w3.org/1999/xhtml" style="display: inline-block; white-space: nowrap;"><span class="nodeLabel">triaged</span></div></foreignObject><foreignObject width="0" height="0" transform="translate( 24.4609375, 30.5)"><div xmlns="http://www.w3.org/1999/xhtml" style="display: inline-block; white-space: nowrap;"><span class="nodeLabel"></span></div></foreignObject></g></g><g class="node statediagram-state" id="state-IdeaIncorporated-2" transform="translate(94.9765625, 315.5)"><rect class="outer title-state" x="-51.9765625" y="-16.5" width="103.953125" height="33"></rect><line class="divider" x1="-51.9765625" x2="51.9765625" y1="9" y2="9"></line><g class="label" transform="translate(-44.4765625, -13.5)"><foreignObject width="88.953125" height="18" transform="translate( 0, 0)"><div xmlns="http://www.w3.org/1999/xhtml" style="display: inline-block; white-space: nowrap;"><span class="nodeLabel">incorporated</span></div></foreignObject><foreignObject width="0" height="0" transform="translate( 44.4765625, 30.5)"><div xmlns="http://www.w3.org/1999/xhtml" style="display: inline-block; white-space: nowrap;"><span class="nodeLabel"></span></div></foreignObject></g></g><g class="node statediagram-state" id="state-IdeaDismissed-3" transform="translate(240.0234375, 315.5)"><rect class="outer title-state" x="-43.0703125" y="-16.5" width="86.140625" height="33"></rect><line class="divider" x1="-43.0703125" x2="43.0703125" y1="9" y2="9"></line><g class="label" transform="translate(-35.5703125, -13.5)"><foreignObject width="71.140625" height="18" transform="translate( 0, 0)"><div xmlns="http://www.w3.org/1999/xhtml" style="display: inline-block; white-space: nowrap;"><span class="nodeLabel">dismissed</span></div></foreignObject><foreignObject width="0" height="0" transform="translate( 35.5703125, 30.5)"><div xmlns="http://www.w3.org/1999/xhtml" style="display: inline-block; white-space: nowrap;"><span class="nodeLabel"></span></div></foreignObject></g></g></g></g><g class="root" transform="translate(360.59375, 50.5)"><g class="clusters"><g class="statediagram-state statediagram-cluster" id="Mission"><rect class="outer" x="8" y="8" width="511.03515625" height="349"></rect><g class="cluster-label" transform="translate(236.400390625, 8)"><foreignObject width="54.234375" height="18"><div xmlns="http://www.w3.org/1999/xhtml" style="display: inline-block; white-space: nowrap;"><span class="nodeLabel">Mission</span></div></foreignObject></g><rect class="inner" x="8" y="25" width="511.03515625" height="328"></rect></g></g><g class="edgePaths"><path d="M260.02734375,47L260.02734375,51.166666666666664C260.02734375,55.333333333333336,260.02734375,63.666666666666664,260.02734375,72C260.02734375,80.33333333333333,260.02734375,88.66666666666667,260.02734375,92.83333333333333L260.02734375,97" id="edge4" class=" edge-thickness-normal transition" style="fill:none" marker-end="url(#statediagram-barbEnd)"></path><path d="M231.07321318069307,130L221.1293703589109,135.66666666666666C211.1855275371287,141.33333333333334,191.29784189356437,152.66666666666666,181.35399907178217,164C171.41015625,175.33333333333334,171.41015625,186.66666666666666,171.41015625,192.33333333333334L171.41015625,198" id="edge5" class=" edge-thickness-normal transition" style="fill:none" marker-end="url(#statediagram-barbEnd)"></path><path d="M145.9849938118812,231L137.25311984323432,236.66666666666666C128.52124587458746,242.33333333333334,111.05749793729372,253.66666666666666,102.32562396864687,265C93.59375,276.3333333333333,93.59375,287.6666666666667,93.59375,293.3333333333333L93.59375,299" id="edge6" class=" edge-thickness-normal transition" style="fill:none" marker-end="url(#statediagram-barbEnd)"></path><path d="M300.88671875,129.98452128323555L314.9388020833333,135.65376773602964C328.9908854166667,141.3230141888237,357.0950520833333,152.66150709441186,371.1471354166667,166.7474202138726C385.19921875,180.83333333333334,385.19921875,197.66666666666666,385.19921875,214.5C385.19921875,231.33333333333334,385.19921875,248.16666666666666,379.88540377475243,262.25C374.5715887995049,276.3333333333333,363.9439588490099,287.6666666666667,358.63014387376234,293.3333333333333L353.3163288985148,299" id="edge7" class=" edge-thickness-normal transition" style="fill:none" marker-end="url(#statediagram-barbEnd)"></path><path d="M196.8353186881188,231L205.56719265676566,236.66666666666666C214.29906662541256,242.33333333333334,231.76281456270627,253.66666666666666,250.43853135313532,265C269.11424814356434,276.3333333333333,289.00193378712873,287.6666666666667,298.9457766089109,293.3333333333333L308.8896194306931,299" id="edge8" class=" edge-thickness-normal transition" style="fill:none" marker-end="url(#statediagram-barbEnd)"></path></g><g class="edgeLabels"><g class="edgeLabel"><g class="label" transform="translate(0, 0)"><rect rx="0" ry="0" width="0" height="0"></rect><foreignObject width="0" height="0"><div xmlns="http://www.w3.org/1999/xhtml" style="display: inline-block; white-space: nowrap;"><span class="edgeLabel"></span></div></foreignObject></g></g><g class="edgeLabel" transform="translate(171.41015625, 164)"><g class="label" transform="translate(-70.265625, -9)"><rect rx="0" ry="0" width="140.53125" height="18"></rect><foreignObject width="140.53125" height="18"><div xmlns="http://www.w3.org/1999/xhtml" style="display: inline-block; white-space: nowrap;"><span class="edgeLabel">release gate ratified</span></div></foreignObject></g></g><g class="edgeLabel" transform="translate(93.59375, 265)"><g class="label" transform="translate(-60.921875, -9)"><rect rx="0" ry="0" width="121.84375" height="18"></rect><foreignObject width="121.84375" height="18"><div xmlns="http://www.w3.org/1999/xhtml" style="display: inline-block; white-space: nowrap;"><span class="edgeLabel">final wave closed</span></div></foreignObject></g></g><g class="edgeLabel" transform="translate(385.19921875, 214.5)"><g class="label" transform="translate(-113.8359375, -9)"><rect rx="0" ry="0" width="227.671875" height="18"></rect><foreignObject width="227.671875" height="18"><div xmlns="http://www.w3.org/1999/xhtml" style="display: inline-block; white-space: nowrap;"><span class="edgeLabel">RED disposition or scope failure</span></div></foreignObject></g></g><g class="edgeLabel" transform="translate(249.2265625, 265)"><g class="label" transform="translate(-74.7109375, -9)"><rect rx="0" ry="0" width="149.421875" height="18"></rect><foreignObject width="149.421875" height="18"><div xmlns="http://www.w3.org/1999/xhtml" style="display: inline-block; white-space: nowrap;"><span class="edgeLabel">rare execution failure</span></div></foreignObject></g></g></g><g class="nodes"><g class="node default" id="state-Mission_start-4" transform="translate(260.02734375, 40)"><circle class="state-start" r="7" width="14" height="14"></circle></g><g class="node statediagram-state" id="state-MissionProposed-7" transform="translate(260.02734375, 113.5)"><rect class="outer title-state" x="-40.859375" y="-16.5" width="81.71875" height="33"></rect><line class="divider" x1="-40.859375" x2="40.859375" y1="9" y2="9"></line><g class="label" transform="translate(-33.359375, -13.5)"><foreignObject width="66.71875" height="18" transform="translate( 0, 0)"><div xmlns="http://www.w3.org/1999/xhtml" style="display: inline-block; white-space: nowrap;"><span class="nodeLabel">proposed</span></div></foreignObject><foreignObject width="0" height="0" transform="translate( 33.359375, 30.5)"><div xmlns="http://www.w3.org/1999/xhtml" style="display: inline-block; white-space: nowrap;"><span class="nodeLabel"></span></div></foreignObject></g></g><g class="node statediagram-state" id="state-MissionActive-8" transform="translate(171.41015625, 214.5)"><rect class="outer title-state" x="-28.3984375" y="-16.5" width="56.796875" height="33"></rect><line class="divider" x1="-28.3984375" x2="28.3984375" y1="9" y2="9"></line><g class="label" transform="translate(-20.8984375, -13.5)"><foreignObject width="41.796875" height="18" transform="translate( 0, 0)"><div xmlns="http://www.w3.org/1999/xhtml" style="display: inline-block; white-space: nowrap;"><span class="nodeLabel">active</span></div></foreignObject><foreignObject width="0" height="0" transform="translate( 20.8984375, 30.5)"><div xmlns="http://www.w3.org/1999/xhtml" style="display: inline-block; white-space: nowrap;"><span class="nodeLabel"></span></div></foreignObject></g></g><g class="node statediagram-state" id="state-MissionCompleted-6" transform="translate(93.59375, 315.5)"><rect class="outer title-state" x="-44.4140625" y="-16.5" width="88.828125" height="33"></rect><line class="divider" x1="-44.4140625" x2="44.4140625" y1="9" y2="9"></line><g class="label" transform="translate(-36.9140625, -13.5)"><foreignObject width="73.828125" height="18" transform="translate( 0, 0)"><div xmlns="http://www.w3.org/1999/xhtml" style="display: inline-block; white-space: nowrap;"><span class="nodeLabel">completed</span></div></foreignObject><foreignObject width="0" height="0" transform="translate( 36.9140625, 30.5)"><div xmlns="http://www.w3.org/1999/xhtml" style="display: inline-block; white-space: nowrap;"><span class="nodeLabel"></span></div></foreignObject></g></g><g class="node statediagram-state" id="state-MissionAbandoned-8" transform="translate(337.84375, 315.5)"><rect class="outer title-state" x="-47.546875" y="-16.5" width="95.09375" height="33"></rect><line class="divider" x1="-47.546875" x2="47.546875" y1="9" y2="9"></line><g class="label" transform="translate(-40.046875, -13.5)"><foreignObject width="80.09375" height="18" transform="translate( 0, 0)"><div xmlns="http://www.w3.org/1999/xhtml" style="display: inline-block; white-space: nowrap;"><span class="nodeLabel">abandoned</span></div></foreignObject><foreignObject width="0" height="0" transform="translate( 40.046875, 30.5)"><div xmlns="http://www.w3.org/1999/xhtml" style="display: inline-block; white-space: nowrap;"><span class="nodeLabel"></span></div></foreignObject></g></g></g></g><g class="root" transform="translate(921.62890625, 0)"><g class="clusters"><g class="statediagram-state statediagram-cluster" id="Task"><rect class="outer" x="8" y="8" width="438.94140625" height="450"></rect><g class="cluster-label" transform="translate(211.017578125, 8)"><foreignObject width="32.90625" height="18"><div xmlns="http://www.w3.org/1999/xhtml" style="display: inline-block; white-space: nowrap;"><span class="nodeLabel">Task</span></div></foreignObject></g><rect class="inner" x="8" y="25" width="438.94140625" height="429"></rect></g></g><g class="edgePaths"><path d="M301.16796875,47L301.16796875,51.166666666666664C301.16796875,55.333333333333336,301.16796875,63.666666666666664,301.16796875,72C301.16796875,80.33333333333333,301.16796875,88.66666666666667,301.16796875,92.83333333333333L301.16796875,97" id="edge9" class=" edge-thickness-normal transition" style="fill:none" marker-end="url(#statediagram-barbEnd)"></path><path d="M275.81427908415844,130L267.10695132013205,135.66666666666666C258.3996235561056,141.33333333333334,240.9849680280528,152.66666666666666,232.27764026402642,164C223.5703125,175.33333333333334,223.5703125,186.66666666666666,223.5703125,192.33333333333334L223.5703125,198" id="edge10" class=" edge-thickness-normal transition" style="fill:none" marker-end="url(#statediagram-barbEnd)"></path><path d="M223.5703125,231L223.5703125,236.66666666666666C223.5703125,242.33333333333334,223.5703125,253.66666666666666,213.52609323432344,265C203.48187396864685,276.3333333333333,183.39343543729373,287.6666666666667,173.34921617161717,293.3333333333333L163.30499690594058,299" id="edge11" class=" edge-thickness-normal transition" style="fill:none" marker-end="url(#statediagram-barbEnd)"></path><path d="M134.05859375,332L134.05859375,337.6666666666667C134.05859375,343.3333333333333,134.05859375,354.6666666666667,134.05859375,366C134.05859375,377.3333333333333,134.05859375,388.6666666666667,134.05859375,394.3333333333333L134.05859375,400" id="edge12" class=" edge-thickness-normal transition" style="fill:none" marker-end="url(#statediagram-barbEnd)"></path><path d="M121.17179764851485,299L116.74602929042904,293.3333333333333C112.32026093234323,287.6666666666667,103.46872421617161,276.3333333333333,114.69009127475248,264.5390110666828C125.91145833333333,252.74468880003232,157.20572916666666,240.4893776000646,172.85286458333334,234.3617220000808L188.5,228.23406640009694" id="edge13" class=" edge-thickness-normal transition" style="fill:none" marker-end="url(#statediagram-barbEnd)"></path><path d="M326.52165841584156,130L335.22898617986795,135.66666666666666C343.9363139438944,141.33333333333334,361.35096947194717,152.66666666666666,370.0582972359736,166.75C378.765625,180.83333333333334,378.765625,197.66666666666666,378.765625,214.5C378.765625,231.33333333333334,378.765625,248.16666666666666,375.74688015676566,262.25C372.7281353135313,276.3333333333333,366.6906456270627,287.6666666666667,363.67190078382833,293.3333333333333L360.65315594059405,299" id="edge14" class=" edge-thickness-normal transition" style="fill:none" marker-end="url(#statediagram-barbEnd)"></path><path d="M256.697942450495,231L268.07510829207916,236.66666666666666C279.45227413366337,242.33333333333334,302.20660581683165,253.66666666666666,316.60251650165014,265C330.99842718646863,276.3333333333333,337.0359168729373,287.6666666666667,340.05466171617167,293.3333333333333L343.07340655940595,299" id="edge15" class=" edge-thickness-normal transition" style="fill:none" marker-end="url(#statediagram-barbEnd)"></path></g><g class="edgeLabels"><g class="edgeLabel"><g class="label" transform="translate(0, 0)"><rect rx="0" ry="0" width="0" height="0"></rect><foreignObject width="0" height="0"><div xmlns="http://www.w3.org/1999/xhtml" style="display: inline-block; white-space: nowrap;"><span class="edgeLabel"></span></div></foreignObject></g></g><g class="edgeLabel" transform="translate(223.5703125, 164)"><g class="label" transform="translate(-52.03125, -9)"><rect rx="0" ry="0" width="104.0625" height="18"></rect><foreignObject width="104.0625" height="18"><div xmlns="http://www.w3.org/1999/xhtml" style="display: inline-block; white-space: nowrap;"><span class="edgeLabel">engineer claim</span></div></foreignObject></g></g><g class="edgeLabel" transform="translate(223.5703125, 265)"><g class="label" transform="translate(-47.5859375, -9)"><rect rx="0" ry="0" width="95.171875" height="18"></rect><foreignObject width="95.171875" height="18"><div xmlns="http://www.w3.org/1999/xhtml" style="display: inline-block; white-space: nowrap;"><span class="edgeLabel">create_report</span></div></foreignObject></g></g><g class="edgeLabel" transform="translate(134.05859375, 366)"><g class="label" transform="translate(-58.703125, -9)"><rect rx="0" ry="0" width="117.40625" height="18"></rect><foreignObject width="117.40625" height="18"><div xmlns="http://www.w3.org/1999/xhtml" style="display: inline-block; white-space: nowrap;"><span class="edgeLabel">approved review</span></div></foreignObject></g></g><g class="edgeLabel" transform="translate(94.6171875, 265)"><g class="label" transform="translate(-61.3671875, -9)"><rect rx="0" ry="0" width="122.734375" height="18"></rect><foreignObject width="122.734375" height="18"><div xmlns="http://www.w3.org/1999/xhtml" style="display: inline-block; white-space: nowrap;"><span class="edgeLabel">revision_required</span></div></foreignObject></g></g><g class="edgeLabel" transform="translate(378.765625, 214.5)"><g class="label" transform="translate(-33.8046875, -9)"><rect rx="0" ry="0" width="67.609375" height="18"></rect><foreignObject width="67.609375" height="18"><div xmlns="http://www.w3.org/1999/xhtml" style="display: inline-block; white-space: nowrap;"><span class="edgeLabel">cancelled</span></div></foreignObject></g></g><g class="edgeLabel" transform="translate(324.9609375, 265)"><g class="label" transform="translate(-33.8046875, -9)"><rect rx="0" ry="0" width="67.609375" height="18"></rect><foreignObject width="67.609375" height="18"><div xmlns="http://www.w3.org/1999/xhtml" style="display: inline-block; white-space: nowrap;"><span class="edgeLabel">cancelled</span></div></foreignObject></g></g></g><g class="nodes"><g class="node default" id="state-Task_start-9" transform="translate(301.16796875, 40)"><circle class="state-start" r="7" width="14" height="14"></circle></g><g class="node statediagram-state" id="state-TaskPending-14" transform="translate(301.16796875, 113.5)"><rect class="outer title-state" x="-35.9765625" y="-16.5" width="71.953125" height="33"></rect><line class="divider" x1="-35.9765625" x2="35.9765625" y1="9" y2="9"></line><g class="label" transform="translate(-28.4765625, -13.5)"><foreignObject width="56.953125" height="18" transform="translate( 0, 0)"><div xmlns="http://www.w3.org/1999/xhtml" style="display: inline-block; white-space: nowrap;"><span class="nodeLabel">pending</span></div></foreignObject><foreignObject width="0" height="0" transform="translate( 28.4765625, 30.5)"><div xmlns="http://www.w3.org/1999/xhtml" style="display: inline-block; white-space: nowrap;"><span class="nodeLabel"></span></div></foreignObject></g></g><g class="node statediagram-state" id="state-TaskWorking-15" transform="translate(223.5703125, 214.5)"><rect class="outer title-state" x="-35.0703125" y="-16.5" width="70.140625" height="33"></rect><line class="divider" x1="-35.0703125" x2="35.0703125" y1="9" y2="9"></line><g class="label" transform="translate(-27.5703125, -13.5)"><foreignObject width="55.140625" height="18" transform="translate( 0, 0)"><div xmlns="http://www.w3.org/1999/xhtml" style="display: inline-block; white-space: nowrap;"><span class="nodeLabel">working</span></div></foreignObject><foreignObject width="0" height="0" transform="translate( 27.5703125, 30.5)"><div xmlns="http://www.w3.org/1999/xhtml" style="display: inline-block; white-space: nowrap;"><span class="nodeLabel"></span></div></foreignObject></g></g><g class="node statediagram-state" id="state-TaskNeedsReview-13" transform="translate(134.05859375, 315.5)"><rect class="outer title-state" x="-56.8671875" y="-16.5" width="113.734375" height="33"></rect><line class="divider" x1="-56.8671875" x2="56.8671875" y1="9" y2="9"></line><g class="label" transform="translate(-49.3671875, -13.5)"><foreignObject width="98.734375" height="18" transform="translate( 0, 0)"><div xmlns="http://www.w3.org/1999/xhtml" style="display: inline-block; white-space: nowrap;"><span class="nodeLabel">needs_review</span></div></foreignObject><foreignObject width="0" height="0" transform="translate( 49.3671875, 30.5)"><div xmlns="http://www.w3.org/1999/xhtml" style="display: inline-block; white-space: nowrap;"><span class="nodeLabel"></span></div></foreignObject></g></g><g class="node statediagram-state" id="state-TaskCompleted-12" transform="translate(134.05859375, 416.5)"><rect class="outer title-state" x="-44.4140625" y="-16.5" width="88.828125" height="33"></rect><line class="divider" x1="-44.4140625" x2="44.4140625" y1="9" y2="9"></line><g class="label" transform="translate(-36.9140625, -13.5)"><foreignObject width="73.828125" height="18" transform="translate( 0, 0)"><div xmlns="http://www.w3.org/1999/xhtml" style="display: inline-block; white-space: nowrap;"><span class="nodeLabel">completed</span></div></foreignObject><foreignObject width="0" height="0" transform="translate( 36.9140625, 30.5)"><div xmlns="http://www.w3.org/1999/xhtml" style="display: inline-block; white-space: nowrap;"><span class="nodeLabel"></span></div></foreignObject></g></g><g class="node statediagram-state" id="state-TaskAbandoned-15" transform="translate(351.86328125, 315.5)"><rect class="outer title-state" x="-47.546875" y="-16.5" width="95.09375" height="33"></rect><line class="divider" x1="-47.546875" x2="47.546875" y1="9" y2="9"></line><g class="label" transform="translate(-40.046875, -13.5)"><foreignObject width="80.09375" height="18" transform="translate( 0, 0)"><div xmlns="http://www.w3.org/1999/xhtml" style="display: inline-block; white-space: nowrap;"><span class="nodeLabel">abandoned</span></div></foreignObject><foreignObject width="0" height="0" transform="translate( 40.046875, 30.5)"><div xmlns="http://www.w3.org/1999/xhtml" style="display: inline-block; white-space: nowrap;"><span class="nodeLabel"></span></div></foreignObject></g></g></g></g><g class="root" transform="translate(1410.5703125, 101)"><g class="clusters"><g class="statediagram-state statediagram-cluster" id="Thread"><rect class="outer" x="8" y="8" width="841.828125" height="248"></rect><g class="cluster-label" transform="translate(403.5625, 8)"><foreignObject width="50.703125" height="18"><div xmlns="http://www.w3.org/1999/xhtml" style="display: inline-block; white-space: nowrap;"><span class="nodeLabel">Thread</span></div></foreignObject></g><rect class="inner" x="8" y="25" width="841.828125" height="227"></rect></g></g><g class="edgePaths"><path d="M467.359375,47L467.359375,51.166666666666664C467.359375,55.333333333333336,467.359375,63.666666666666664,467.359375,72C467.359375,80.33333333333333,467.359375,88.66666666666667,467.359375,92.83333333333333L467.359375,97" id="edge16" class=" edge-thickness-normal transition" style="fill:none" marker-end="url(#statediagram-barbEnd)"></path><path d="M438.9609375,117.7971932206564L388.0716145833333,125.49766101721366C337.1822916666667,133.19812881377092,235.40364583333334,148.59906440688545,184.51432291666666,161.9661988701094C133.625,175.33333333333334,133.625,186.66666666666666,133.625,192.33333333333334L133.625,198" id="edge17" class=" edge-thickness-normal transition" style="fill:none" marker-end="url(#statediagram-barbEnd)"></path><path d="M438.9609375,124.10899843957695L421.1640625,130.75749869964747C403.3671875,137.40599895971798,367.7734375,150.702999479859,349.9765625,163.01816640659615C332.1796875,175.33333333333334,332.1796875,186.66666666666666,332.1796875,192.33333333333334L332.1796875,198" id="edge18" class=" edge-thickness-normal transition" style="fill:none" marker-end="url(#statediagram-barbEnd)"></path><path d="M467.359375,130L467.359375,135.66666666666666C467.359375,141.33333333333334,467.359375,152.66666666666666,467.359375,164C467.359375,175.33333333333334,467.359375,186.66666666666666,467.359375,192.33333333333334L467.359375,198" id="edge19" class=" edge-thickness-normal transition" style="fill:none" marker-end="url(#statediagram-barbEnd)"></path><path d="M495.7578125,124.68904669023527L512.38671875,131.24087224186272C529.015625,137.7926977934902,562.2734375,150.89634889674508,578.90234375,163.1148411150392C595.53125,175.33333333333334,595.53125,186.66666666666666,595.53125,192.33333333333334L595.53125,198" id="edge20" class=" edge-thickness-normal transition" style="fill:none" marker-end="url(#statediagram-barbEnd)"></path><path d="M495.7578125,118.50402082651837L538.7903645833334,126.08668402209865C581.8229166666666,133.6693472176789,667.8880208333334,148.83467360883947,710.9205729166666,162.0840034710864C753.953125,175.33333333333334,753.953125,186.66666666666666,753.953125,192.33333333333334L753.953125,198" id="edge21" class=" edge-thickness-normal transition" style="fill:none" marker-end="url(#statediagram-barbEnd)"></path></g><g class="edgeLabels"><g class="edgeLabel"><g class="label" transform="translate(0, 0)"><rect rx="0" ry="0" width="0" height="0"></rect><foreignObject width="0" height="0"><div xmlns="http://www.w3.org/1999/xhtml" style="display: inline-block; white-space: nowrap;"><span class="edgeLabel"></span></div></foreignObject></g></g><g class="edgeLabel" transform="translate(133.625, 164)"><g class="label" transform="translate(-105.625, -9)"><rect rx="0" ry="0" width="211.25" height="18"></rect><foreignObject width="211.25" height="18"><div xmlns="http://www.w3.org/1999/xhtml" style="display: inline-block; white-space: nowrap;"><span class="edgeLabel">bilateral seal + staged actions</span></div></foreignObject></g></g><g class="edgeLabel" transform="translate(332.1796875, 164)"><g class="label" transform="translate(-72.9296875, -9)"><rect rx="0" ry="0" width="145.859375" height="18"></rect><foreignObject width="145.859375" height="18"><div xmlns="http://www.w3.org/1999/xhtml" style="display: inline-block; white-space: nowrap;"><span class="edgeLabel">max rounds reached</span></div></foreignObject></g></g><g class="edgeLabel" transform="translate(467.359375, 164)"><g class="label" transform="translate(-42.25, -9)"><rect rx="0" ry="0" width="84.5" height="18"></rect><foreignObject width="84.5" height="18"><div xmlns="http://www.w3.org/1999/xhtml" style="display: inline-block; white-space: nowrap;"><span class="edgeLabel">close action</span></div></foreignObject></g></g><g class="edgeLabel" transform="translate(595.53125, 164)"><g class="label" transform="translate(-40.046875, -9)"><rect rx="0" ry="0" width="80.09375" height="18"></rect><foreignObject width="80.09375" height="18"><div xmlns="http://www.w3.org/1999/xhtml" style="display: inline-block; white-space: nowrap;"><span class="edgeLabel">abandoned</span></div></foreignObject></g></g><g class="edgeLabel" transform="translate(753.953125, 164)"><g class="label" transform="translate(-71.6015625, -9)"><rect rx="0" ry="0" width="143.203125" height="18"></rect><foreignObject width="143.203125" height="18"><div xmlns="http://www.w3.org/1999/xhtml" style="display: inline-block; white-space: nowrap;"><span class="edgeLabel">staged action failure</span></div></foreignObject></g></g></g><g class="nodes"><g class="node default" id="state-Thread_start-16" transform="translate(467.359375, 40)"><circle class="state-start" r="7" width="14" height="14"></circle></g><g class="node statediagram-state" id="state-ThreadActive-21" transform="translate(467.359375, 113.5)"><rect class="outer title-state" x="-28.3984375" y="-16.5" width="56.796875" height="33"></rect><line class="divider" x1="-28.3984375" x2="28.3984375" y1="9" y2="9"></line><g class="label" transform="translate(-20.8984375, -13.5)"><foreignObject width="41.796875" height="18" transform="translate( 0, 0)"><div xmlns="http://www.w3.org/1999/xhtml" style="display: inline-block; white-space: nowrap;"><span class="nodeLabel">active</span></div></foreignObject><foreignObject width="0" height="0" transform="translate( 20.8984375, 30.5)"><div xmlns="http://www.w3.org/1999/xhtml" style="display: inline-block; white-space: nowrap;"><span class="nodeLabel"></span></div></foreignObject></g></g><g class="node statediagram-state" id="state-ThreadConverged-17" transform="translate(133.625, 214.5)"><rect class="outer title-state" x="-44.859375" y="-16.5" width="89.71875" height="33"></rect><line class="divider" x1="-44.859375" x2="44.859375" y1="9" y2="9"></line><g class="label" transform="translate(-37.359375, -13.5)"><foreignObject width="74.71875" height="18" transform="translate( 0, 0)"><div xmlns="http://www.w3.org/1999/xhtml" style="display: inline-block; white-space: nowrap;"><span class="nodeLabel">converged</span></div></foreignObject><foreignObject width="0" height="0" transform="translate( 37.359375, 30.5)"><div xmlns="http://www.w3.org/1999/xhtml" style="display: inline-block; white-space: nowrap;"><span class="nodeLabel"></span></div></foreignObject></g></g><g class="node statediagram-state" id="state-ThreadRoundLimit-18" transform="translate(332.1796875, 214.5)"><rect class="outer title-state" x="-46.6328125" y="-16.5" width="93.265625" height="33"></rect><line class="divider" x1="-46.6328125" x2="46.6328125" y1="9" y2="9"></line><g class="label" transform="translate(-39.1328125, -13.5)"><foreignObject width="78.265625" height="18" transform="translate( 0, 0)"><div xmlns="http://www.w3.org/1999/xhtml" style="display: inline-block; white-space: nowrap;"><span class="nodeLabel">round_limit</span></div></foreignObject><foreignObject width="0" height="0" transform="translate( 39.1328125, 30.5)"><div xmlns="http://www.w3.org/1999/xhtml" style="display: inline-block; white-space: nowrap;"><span class="nodeLabel"></span></div></foreignObject></g></g><g class="node statediagram-state" id="state-ThreadClosed-19" transform="translate(467.359375, 214.5)"><rect class="outer title-state" x="-30.625" y="-16.5" width="61.25" height="33"></rect><line class="divider" x1="-30.625" x2="30.625" y1="9" y2="9"></line><g class="label" transform="translate(-23.125, -13.5)"><foreignObject width="46.25" height="18" transform="translate( 0, 0)"><div xmlns="http://www.w3.org/1999/xhtml" style="display: inline-block; white-space: nowrap;"><span class="nodeLabel">closed</span></div></foreignObject><foreignObject width="0" height="0" transform="translate( 23.125, 30.5)"><div xmlns="http://www.w3.org/1999/xhtml" style="display: inline-block; white-space: nowrap;"><span class="nodeLabel"></span></div></foreignObject></g></g><g class="node statediagram-state" id="state-ThreadAbandoned-20" transform="translate(595.53125, 214.5)"><rect class="outer title-state" x="-47.546875" y="-16.5" width="95.09375" height="33"></rect><line class="divider" x1="-47.546875" x2="47.546875" y1="9" y2="9"></line><g class="label" transform="translate(-40.046875, -13.5)"><foreignObject width="80.09375" height="18" transform="translate( 0, 0)"><div xmlns="http://www.w3.org/1999/xhtml" style="display: inline-block; white-space: nowrap;"><span class="nodeLabel">abandoned</span></div></foreignObject><foreignObject width="0" height="0" transform="translate( 40.046875, 30.5)"><div xmlns="http://www.w3.org/1999/xhtml" style="display: inline-block; white-space: nowrap;"><span class="nodeLabel"></span></div></foreignObject></g></g><g class="node statediagram-state" id="state-ThreadCascadeFailed-21" transform="translate(753.953125, 214.5)"><rect class="outer title-state" x="-60.875" y="-16.5" width="121.75" height="33"></rect><line class="divider" x1="-60.875" x2="60.875" y1="9" y2="9"></line><g class="label" transform="translate(-53.375, -13.5)"><foreignObject width="106.75" height="18" transform="translate( 0, 0)"><div xmlns="http://www.w3.org/1999/xhtml" style="display: inline-block; white-space: nowrap;"><span class="nodeLabel">cascade_failed</span></div></foreignObject><foreignObject width="0" height="0" transform="translate( 53.375, 30.5)"><div xmlns="http://www.w3.org/1999/xhtml" style="display: inline-block; white-space: nowrap;"><span class="nodeLabel"></span></div></foreignObject></g></g></g></g><g class="root" transform="translate(2302.3984375, 50.5)"><g class="clusters"><g class="statediagram-state statediagram-cluster" id="Message"><rect class="outer" x="8" y="8" width="151.15625" height="349"></rect><g class="cluster-label" transform="translate(51.1171875, 8)"><foreignObject width="64.921875" height="18"><div xmlns="http://www.w3.org/1999/xhtml" style="display: inline-block; white-space: nowrap;"><span class="nodeLabel">Message</span></div></foreignObject></g><rect class="inner" x="8" y="25" width="151.15625" height="328"></rect></g></g><g class="edgePaths"><path d="M83.578125,47L83.578125,51.166666666666664C83.578125,55.333333333333336,83.578125,63.666666666666664,83.578125,72C83.578125,80.33333333333333,83.578125,88.66666666666667,83.578125,92.83333333333333L83.578125,97" id="edge22" class=" edge-thickness-normal transition" style="fill:none" marker-end="url(#statediagram-barbEnd)"></path><path d="M83.578125,130L83.578125,135.66666666666666C83.578125,141.33333333333334,83.578125,152.66666666666666,83.578125,164C83.578125,175.33333333333334,83.578125,186.66666666666666,83.578125,192.33333333333334L83.578125,198" id="edge23" class=" edge-thickness-normal transition" style="fill:none" marker-end="url(#statediagram-barbEnd)"></path><path d="M83.578125,231L83.578125,236.66666666666666C83.578125,242.33333333333334,83.578125,253.66666666666666,83.578125,265C83.578125,276.3333333333333,83.578125,287.6666666666667,83.578125,293.3333333333333L83.578125,299" id="edge24" class=" edge-thickness-normal transition" style="fill:none" marker-end="url(#statediagram-barbEnd)"></path></g><g class="edgeLabels"><g class="edgeLabel"><g class="label" transform="translate(0, 0)"><rect rx="0" ry="0" width="0" height="0"></rect><foreignObject width="0" height="0"><div xmlns="http://www.w3.org/1999/xhtml" style="display: inline-block; white-space: nowrap;"><span class="edgeLabel"></span></div></foreignObject></g></g><g class="edgeLabel" transform="translate(83.578125, 164)"><g class="label" transform="translate(-55.578125, -9)"><rect rx="0" ry="0" width="111.15625" height="18"></rect><foreignObject width="111.15625" height="18"><div xmlns="http://www.w3.org/1999/xhtml" style="display: inline-block; white-space: nowrap;"><span class="edgeLabel">claim_message</span></div></foreignObject></g></g><g class="edgeLabel" transform="translate(83.578125, 265)"><g class="label" transform="translate(-49.359375, -9)"><rect rx="0" ry="0" width="98.71875" height="18"></rect><foreignObject width="98.71875" height="18"><div xmlns="http://www.w3.org/1999/xhtml" style="display: inline-block; white-space: nowrap;"><span class="edgeLabel">ack_message</span></div></foreignObject></g></g></g><g class="nodes"><g class="node default" id="state-Message_start-22" transform="translate(83.578125, 40)"><circle class="state-start" r="7" width="14" height="14"></circle></g><g class="node statediagram-state" id="state-MessageNew-23" transform="translate(83.578125, 113.5)"><rect class="outer title-state" x="-22.1796875" y="-16.5" width="44.359375" height="33"></rect><line class="divider" x1="-22.1796875" x2="22.1796875" y1="9" y2="9"></line><g class="label" transform="translate(-14.6796875, -13.5)"><foreignObject width="29.359375" height="18" transform="translate( 0, 0)"><div xmlns="http://www.w3.org/1999/xhtml" style="display: inline-block; white-space: nowrap;"><span class="nodeLabel">new</span></div></foreignObject><foreignObject width="0" height="0" transform="translate( 14.6796875, 30.5)"><div xmlns="http://www.w3.org/1999/xhtml" style="display: inline-block; white-space: nowrap;"><span class="nodeLabel"></span></div></foreignObject></g></g><g class="node statediagram-state" id="state-MessageReceived-24" transform="translate(83.578125, 214.5)"><rect class="outer title-state" x="-37.7421875" y="-16.5" width="75.484375" height="33"></rect><line class="divider" x1="-37.7421875" x2="37.7421875" y1="9" y2="9"></line><g class="label" transform="translate(-30.2421875, -13.5)"><foreignObject width="60.484375" height="18" transform="translate( 0, 0)"><div xmlns="http://www.w3.org/1999/xhtml" style="display: inline-block; white-space: nowrap;"><span class="nodeLabel">received</span></div></foreignObject><foreignObject width="0" height="0" transform="translate( 30.2421875, 30.5)"><div xmlns="http://www.w3.org/1999/xhtml" style="display: inline-block; white-space: nowrap;"><span class="nodeLabel"></span></div></foreignObject></g></g><g class="node statediagram-state" id="state-MessageAcked-24" transform="translate(83.578125, 315.5)"><rect class="outer title-state" x="-28.8515625" y="-16.5" width="57.703125" height="33"></rect><line class="divider" x1="-28.8515625" x2="28.8515625" y1="9" y2="9"></line><g class="label" transform="translate(-21.3515625, -13.5)"><foreignObject width="42.703125" height="18" transform="translate( 0, 0)"><div xmlns="http://www.w3.org/1999/xhtml" style="display: inline-block; white-space: nowrap;"><span class="nodeLabel">acked</span></div></foreignObject><foreignObject width="0" height="0" transform="translate( 21.3515625, 30.5)"><div xmlns="http://www.w3.org/1999/xhtml" style="display: inline-block; white-space: nowrap;"><span class="nodeLabel"></span></div></foreignObject></g></g></g></g></g></g></g></svg>