<svg id="mermaid-1777262438951" width="100%" xmlns="http://www.w3.org/2000/svg" xmlns:xlink="http://www.w3.org/1999/xlink" height="2917.40625" style="max-width: 999.80859375px;" viewBox="0 0 999.80859375 2917.40625"><style>#mermaid-1777262438951 {font-family:"trebuchet ms",verdana,arial,sans-serif;font-size:16px;fill:#333;}#mermaid-1777262438951 .error-icon{fill:#552222;}#mermaid-1777262438951 .error-text{fill:#552222;stroke:#552222;}#mermaid-1777262438951 .edge-thickness-normal{stroke-width:2px;}#mermaid-1777262438951 .edge-thickness-thick{stroke-width:3.5px;}#mermaid-1777262438951 .edge-pattern-solid{stroke-dasharray:0;}#mermaid-1777262438951 .edge-pattern-dashed{stroke-dasharray:3;}#mermaid-1777262438951 .edge-pattern-dotted{stroke-dasharray:2;}#mermaid-1777262438951 .marker{fill:#333333;stroke:#333333;}#mermaid-1777262438951 .marker.cross{stroke:#333333;}#mermaid-1777262438951 svg{font-family:"trebuchet ms",verdana,arial,sans-serif;font-size:16px;}#mermaid-1777262438951 .label{font-family:"trebuchet ms",verdana,arial,sans-serif;color:#333;}#mermaid-1777262438951 .cluster-label text{fill:#333;}#mermaid-1777262438951 .cluster-label span{color:#333;}#mermaid-1777262438951 .label text,#mermaid-1777262438951 span{fill:#333;color:#333;}#mermaid-1777262438951 .node rect,#mermaid-1777262438951 .node circle,#mermaid-1777262438951 .node ellipse,#mermaid-1777262438951 .node polygon,#mermaid-1777262438951 .node path{fill:#ECECFF;stroke:#9370DB;stroke-width:1px;}#mermaid-1777262438951 .node .label{text-align:center;}#mermaid-1777262438951 .node.clickable{cursor:pointer;}#mermaid-1777262438951 .arrowheadPath{fill:#333333;}#mermaid-1777262438951 .edgePath .path{stroke:#333333;stroke-width:2.0px;}#mermaid-1777262438951 .flowchart-link{stroke:#333333;fill:none;}#mermaid-1777262438951 .edgeLabel{background-color:#e8e8e8;text-align:center;}#mermaid-1777262438951 .edgeLabel rect{opacity:0.5;background-color:#e8e8e8;fill:#e8e8e8;}#mermaid-1777262438951 .cluster rect{fill:#ffffde;stroke:#aaaa33;stroke-width:1px;}#mermaid-1777262438951 .cluster text{fill:#333;}#mermaid-1777262438951 .cluster span{color:#333;}#mermaid-1777262438951 div.mermaidTooltip{position:absolute;text-align:center;max-width:200px;padding:2px;font-family:"trebuchet ms",verdana,arial,sans-serif;font-size:12px;background:hsl(80, 100%, 96.2745098039%);border:1px solid #aaaa33;border-radius:2px;pointer-events:none;z-index:100;}#mermaid-1777262438951 :root{--mermaid-font-family:"trebuchet ms",verdana,arial,sans-serif;}#mermaid-1777262438951 .architect&gt;*{fill:#f3e8ff!important;stroke:#7e3fb2!important;color:#1f1f1f!important;}#mermaid-1777262438951 .architect span{fill:#f3e8ff!important;stroke:#7e3fb2!important;color:#1f1f1f!important;}#mermaid-1777262438951 .engineer&gt;*{fill:#e9f7ef!important;stroke:#22863a!important;color:#1f1f1f!important;}#mermaid-1777262438951 .engineer span{fill:#e9f7ef!important;stroke:#22863a!important;color:#1f1f1f!important;}#mermaid-1777262438951 .system&gt;*{fill:#e7f1ff!important;stroke:#2f6fed!important;color:#1f1f1f!important;}#mermaid-1777262438951 .system span{fill:#e7f1ff!important;stroke:#2f6fed!important;color:#1f1f1f!important;}#mermaid-1777262438951 .github&gt;*{fill:#f6f8fa!important;stroke:#8c959f!important;color:#1f1f1f!important;}#mermaid-1777262438951 .github span{fill:#f6f8fa!important;stroke:#8c959f!important;color:#1f1f1f!important;}#mermaid-1777262438951 .decision&gt;*{fill:#fff3cd!important;stroke:#b58b00!important;color:#1f1f1f!important;}#mermaid-1777262438951 .decision span{fill:#fff3cd!important;stroke:#b58b00!important;color:#1f1f1f!important;}</style><g transform="translate(0, 0)"><marker id="flowchart-pointEnd" class="marker flowchart" viewBox="0 0 10 10" refX="9" refY="5" markerUnits="userSpaceOnUse" markerWidth="12" markerHeight="12" orient="auto"><path d="M 0 0 L 10 5 L 0 10 z" class="arrowMarkerPath" style="stroke-width: 1; stroke-dasharray: 1, 0;"></path></marker><marker id="flowchart-pointStart" class="marker flowchart" viewBox="0 0 10 10" refX="0" refY="5" markerUnits="userSpaceOnUse" markerWidth="12" markerHeight="12" orient="auto"><path d="M 0 5 L 10 10 L 10 0 z" class="arrowMarkerPath" style="stroke-width: 1; stroke-dasharray: 1, 0;"></path></marker><marker id="flowchart-circleEnd" class="marker flowchart" viewBox="0 0 10 10" refX="11" refY="5" markerUnits="userSpaceOnUse" markerWidth="11" markerHeight="11" orient="auto"><circle cx="5" cy="5" r="5" class="arrowMarkerPath" style="stroke-width: 1; stroke-dasharray: 1, 0;"></circle></marker><marker id="flowchart-circleStart" class="marker flowchart" viewBox="0 0 10 10" refX="-1" refY="5" markerUnits="userSpaceOnUse" markerWidth="11" markerHeight="11" orient="auto"><circle cx="5" cy="5" r="5" class="arrowMarkerPath" style="stroke-width: 1; stroke-dasharray: 1, 0;"></circle></marker><marker id="flowchart-crossEnd" class="marker cross flowchart" viewBox="0 0 11 11" refX="12" refY="5.2" markerUnits="userSpaceOnUse" markerWidth="11" markerHeight="11" orient="auto"><path d="M 1,1 l 9,9 M 10,1 l -9,9" class="arrowMarkerPath" style="stroke-width: 2; stroke-dasharray: 1, 0;"></path></marker><marker id="flowchart-crossStart" class="marker cross flowchart" viewBox="0 0 11 11" refX="-1" refY="5.2" markerUnits="userSpaceOnUse" markerWidth="11" markerHeight="11" orient="auto"><path d="M 1,1 l 9,9 M 10,1 l -9,9" class="arrowMarkerPath" style="stroke-width: 2; stroke-dasharray: 1, 0;"></path></marker><g class="root"><g class="clusters"></g><g class="edgePaths"><path d="M672.2681002475248,59L666.808052289604,63.166666666666664C661.3480043316832,67.33333333333333,650.4279084158416,75.66666666666667,644.9678604579208,84C639.5078125,92.33333333333333,639.5078125,100.66666666666667,639.5078125,104.83333333333333L639.5078125,109" id="L-Dispatch-Available-0" class=" edge-thickness-normal edge-pattern-solid flowchart-link LS-Dispatch LE-Available" style="fill:none;" marker-end="url(#flowchart-pointEnd)"></path><path d="M639.5078125,160L639.5078125,164.16666666666666C639.5078125,168.33333333333334,639.5078125,176.66666666666666,639.5078125,185C639.5078125,193.33333333333334,639.5078125,201.66666666666666,639.5078125,205.83333333333334L639.5078125,210" id="L-Available-Claim-0" class=" edge-thickness-normal edge-pattern-solid flowchart-link LS-Available LE-Claim" style="fill:none;" marker-end="url(#flowchart-pointEnd)"></path><path d="M600.2459390470297,261L593.8306002475247,265.1666666666667C587.4152614480198,269.3333333333333,574.5845838490098,277.6666666666667,568.1692450495049,286C561.75390625,294.3333333333333,561.75390625,302.6666666666667,561.75390625,306.8333333333333L561.75390625,311" id="L-Claim-TraceStart-0" class=" edge-thickness-normal edge-pattern-solid flowchart-link LS-Claim LE-TraceStart" style="fill:none;" marker-end="url(#flowchart-pointEnd)"></path><path d="M561.75390625,362L561.75390625,366.1666666666667C561.75390625,370.3333333333333,561.75390625,378.6666666666667,561.75390625,387C561.75390625,395.3333333333333,561.75390625,403.6666666666667,561.75390625,407.8333333333333L561.75390625,412" id="L-TraceStart-Branch-0" class=" edge-thickness-normal edge-pattern-solid flowchart-link LS-TraceStart LE-Branch" style="fill:none;" marker-end="url(#flowchart-pointEnd)"></path><path d="M561.75390625,463L561.75390625,467.1666666666667C561.75390625,471.3333333333333,561.75390625,479.6666666666667,561.75390625,488C561.75390625,496.3333333333333,561.75390625,504.6666666666667,561.75390625,508.8333333333333L561.75390625,513" id="L-Branch-PR-0" class=" edge-thickness-normal edge-pattern-solid flowchart-link LS-Branch LE-PR" style="fill:none;" marker-end="url(#flowchart-pointEnd)"></path><path d="M561.75390625,564L561.75390625,568.1666666666666C561.75390625,572.3333333333334,561.75390625,580.6666666666666,561.75390625,589C561.75390625,597.3333333333334,561.75390625,605.6666666666666,561.75390625,609.8333333333334L561.75390625,614" id="L-PR-Notify-0" class=" edge-thickness-normal edge-pattern-solid flowchart-link LS-PR LE-Notify" style="fill:none;" marker-end="url(#flowchart-pointEnd)"></path><path d="M529.1727645420792,665L523.8490485767327,669.1666666666666C518.5253326113861,673.3333333333334,507.8779006806931,681.6666666666666,502.55418471534654,690C497.23046875,698.3333333333334,497.23046875,706.6666666666666,497.23046875,710.8333333333334L497.23046875,715" id="L-Notify-Review-0" class=" edge-thickness-normal edge-pattern-solid flowchart-link LS-Notify LE-Review" style="fill:none;" marker-end="url(#flowchart-pointEnd)"></path><path d="M410.50719368811883,766L396.33672390676566,770.1666666666666C382.16625412541254,774.3333333333334,353.8253145627063,782.6666666666666,339.7381781146865,791.0833333333334C325.6510416666667,799.5,325.8177083333333,808,325.9010416666667,812.25L325.984375,816.5" id="L-Review-Outcome-0" class=" edge-thickness-normal edge-pattern-solid flowchart-link LS-Review LE-Outcome" style="fill:none;" marker-end="url(#flowchart-pointEnd)"></path><path d="M272.06506528210775,928.8619402821078L244.9435439850898,943.4318252350898C217.82202268807183,958.0017101880718,163.57898009403593,987.141480094036,136.45745879701795,1007.3780317136847C109.3359375,1027.6145833333333,109.3359375,1038.9479166666667,109.3359375,1044.6145833333333L109.3359375,1050.28125" id="L-Outcome-Changes-0" class=" edge-thickness-normal edge-pattern-solid flowchart-link LS-Outcome LE-Changes" style="fill:none;" marker-end="url(#flowchart-pointEnd)"></path><path d="M109.3359375,1101.28125L109.3359375,1105.4479166666667C109.3359375,1109.6145833333333,109.3359375,1117.9479166666667,109.3359375,1127.78125C109.3359375,1137.6145833333333,109.3359375,1148.9479166666667,109.3359375,1154.6145833333333L109.3359375,1160.28125" id="L-Changes-Revise-0" class=" edge-thickness-normal edge-pattern-solid flowchart-link LS-Changes LE-Revise" style="fill:none;" marker-end="url(#flowchart-pointEnd)"></path><path d="M109.3359375,1193.28125L109.3359375,1198.9479166666667C109.3359375,1204.6145833333333,109.3359375,1215.9479166666667,180.14381052773888,1241.5475957222611C250.95168355547776,1267.1472747778555,392.5674296109555,1307.0132995557112,463.3753026386944,1326.9463119446389L534.1831756664333,1346.8793243335667" id="L-Revise-ScopeChanged-0" class=" edge-thickness-normal edge-pattern-solid flowchart-link LS-Revise LE-ScopeChanged" style="fill:none;" marker-end="url(#flowchart-pointEnd)"></path><path d="M681.9559026330286,1306.4559026330287L692.4033563608572,1293.2601271941905C702.8508100886856,1280.0643517553524,723.7457175443428,1253.6728008776763,734.1931712721713,1232.0603587721714C744.640625,1210.4479166666667,744.640625,1193.6145833333333,744.640625,1176.78125C744.640625,1159.9479166666667,744.640625,1143.1145833333333,744.640625,1126.28125C744.640625,1109.4479166666667,744.640625,1092.6145833333333,744.640625,1074.28125C744.640625,1055.9479166666667,744.640625,1036.1145833333333,744.640625,1006.6744791666666C744.640625,977.234375,744.640625,938.1875,744.640625,900.640625C744.640625,863.09375,744.640625,827.046875,744.640625,800.6067708333334C744.640625,774.1666666666666,744.640625,757.3333333333334,744.640625,740.5C744.640625,723.6666666666666,744.640625,706.8333333333334,725.7102864583334,693.1894850381256C706.7799479166666,679.5456367429177,668.9192708333334,669.0912734858356,649.9889322916666,663.8640918572945L631.05859375,658.6369102287533" id="L-ScopeChanged-Notify-0" class=" edge-thickness-normal edge-pattern-solid flowchart-link LS-ScopeChanged LE-Notify" style="fill:none;" marker-end="url(#flowchart-pointEnd)"></path><path d="M643.0854334321356,1267.5854334321355L643.9312205684463,1260.8680695267797C644.777007704757,1254.1507056214236,646.4685819773786,1240.7159778107118,647.3143691136893,1225.5819472386893C648.16015625,1210.4479166666667,648.16015625,1193.6145833333333,648.16015625,1176.78125C648.16015625,1159.9479166666667,648.16015625,1143.1145833333333,648.16015625,1126.28125C648.16015625,1109.4479166666667,648.16015625,1092.6145833333333,648.16015625,1074.28125C648.16015625,1055.9479166666667,648.16015625,1036.1145833333333,648.16015625,1006.6744791666666C648.16015625,977.234375,648.16015625,938.1875,648.16015625,900.640625C648.16015625,863.09375,648.16015625,827.046875,635.7072117367987,804.8567708333334C623.2542672235974,782.6666666666666,598.3483781971947,774.3333333333334,585.8954336839935,770.1666666666666L573.4424891707921,766" id="L-ScopeChanged-Review-0" class=" edge-thickness-normal edge-pattern-solid flowchart-link LS-ScopeChanged LE-Review" style="fill:none;" marker-end="url(#flowchart-pointEnd)"></path><path d="M360.72797650244587,948.0376484975542L368.8696679187049,959.4115820812953C377.01135933496397,970.7855156650361,393.29474216748196,993.533382832518,401.436433583741,1010.5739830829257C409.578125,1027.6145833333333,409.578125,1038.9479166666667,409.578125,1044.6145833333333L409.578125,1050.28125" id="L-Outcome-Merge-0" class=" edge-thickness-normal edge-pattern-solid flowchart-link LS-Outcome LE-Merge" style="fill:none;" marker-end="url(#flowchart-pointEnd)"></path><path d="M409.578125,1101.28125L409.578125,1105.4479166666667C409.578125,1109.6145833333333,409.578125,1117.9479166666667,409.578125,1126.28125C409.578125,1134.6145833333333,409.578125,1142.9479166666667,409.578125,1147.1145833333333L409.578125,1151.28125" id="L-Merge-Seal-0" class=" edge-thickness-normal edge-pattern-solid flowchart-link LS-Merge LE-Seal" style="fill:none;" marker-end="url(#flowchart-pointEnd)"></path><path d="M409.578125,1202.28125L409.578125,1206.4479166666667C409.578125,1210.6145833333333,409.578125,1218.9479166666667,398.01871476510064,1243.1158854166667C386.45930453020134,1267.2838541666667,363.34048406040273,1307.2864583333333,351.78107382550337,1327.2877604166667L340.221663590604,1347.2890625" id="L-Seal-TraceDone-0" class=" edge-thickness-normal edge-pattern-solid flowchart-link LS-Seal LE-TraceDone" style="fill:none;" marker-end="url(#flowchart-pointEnd)"></path><path d="M325.484375,1398.2890625L325.484375,1418.2903645833333C325.484375,1438.2916666666667,325.484375,1478.2942708333333,325.5677083333333,1502.5455729166667C325.6510416666667,1526.796875,325.8177083333333,1535.296875,325.9010416666667,1539.546875L325.984375,1543.796875" id="L-TraceDone-Path-0" class=" edge-thickness-normal edge-pattern-solid flowchart-link LS-TraceDone LE-Path" style="fill:none;" marker-end="url(#flowchart-pointEnd)"></path><path d="M283.0062814704877,1654.6781564704877L266.68231789207306,1667.4245053920731C250.35835431365845,1680.1708543136585,217.71042715682924,1705.6635521568294,201.3864635784146,1724.076567745081C185.0625,1742.4895833333333,185.0625,1753.8229166666667,185.0625,1759.4895833333333L185.0625,1765.15625" id="L-Path-Report-0" class=" edge-thickness-normal edge-pattern-solid flowchart-link LS-Path LE-Report" style="fill:none;" marker-end="url(#flowchart-pointEnd)"></path><path d="M185.0625,1816.15625L185.0625,1820.3229166666667C185.0625,1824.4895833333333,185.0625,1832.8229166666667,185.0625,1841.15625C185.0625,1849.4895833333333,185.0625,1857.8229166666667,185.0625,1861.9895833333333L185.0625,1866.15625" id="L-Report-HubReview-0" class=" edge-thickness-normal edge-pattern-solid flowchart-link LS-Report LE-HubReview" style="fill:none;" marker-end="url(#flowchart-pointEnd)"></path><path d="M185.0625,1917.15625L185.0625,1922.8229166666667C185.0625,1928.4895833333333,185.0625,1939.8229166666667,185.14583333333334,1951.2395833333333C185.22916666666666,1962.65625,185.39583333333334,1974.15625,185.47916666666666,1979.90625L185.5625,1985.65625" id="L-HubReview-TaskOutcome-0" class=" edge-thickness-normal edge-pattern-solid flowchart-link LS-HubReview LE-TaskOutcome" style="fill:none;" marker-end="url(#flowchart-pointEnd)"></path><path d="M272.1009395504585,2072.1946895504584L371.31458504204875,2052.0216162920487C470.52823053363903,2031.8485430336389,668.9555215168194,1991.5023965168195,768.1691670084098,1961.4126565917431C867.3828125,1931.3229166666667,867.3828125,1911.4895833333333,867.3828125,1893.15625C867.3828125,1874.8229166666667,867.3828125,1857.9895833333333,867.3828125,1841.15625C867.3828125,1824.3229166666667,867.3828125,1807.4895833333333,867.3828125,1789.15625C867.3828125,1770.8229166666667,867.3828125,1750.9895833333333,867.3828125,1722.5846354166667C867.3828125,1694.1796875,867.3828125,1657.203125,867.3828125,1621.7265625C867.3828125,1586.25,867.3828125,1552.2734375,867.3828125,1511.0338541666667C867.3828125,1469.7942708333333,867.3828125,1421.2916666666667,867.3828125,1372.7890625C867.3828125,1324.2864583333333,867.3828125,1275.7838541666667,867.3828125,1243.1158854166667C867.3828125,1210.4479166666667,867.3828125,1193.6145833333333,867.3828125,1176.78125C867.3828125,1159.9479166666667,867.3828125,1143.1145833333333,867.3828125,1126.28125C867.3828125,1109.4479166666667,867.3828125,1092.6145833333333,867.3828125,1074.28125C867.3828125,1055.9479166666667,867.3828125,1036.1145833333333,867.3828125,1006.6744791666666C867.3828125,977.234375,867.3828125,938.1875,867.3828125,900.640625C867.3828125,863.09375,867.3828125,827.046875,867.3828125,800.6067708333334C867.3828125,774.1666666666666,867.3828125,757.3333333333334,867.3828125,740.5C867.3828125,723.6666666666666,867.3828125,706.8333333333334,867.3828125,690C867.3828125,673.1666666666666,867.3828125,656.3333333333334,867.3828125,639.5C867.3828125,622.6666666666666,867.3828125,605.8333333333334,867.3828125,589C867.3828125,572.1666666666666,867.3828125,555.3333333333334,867.3828125,538.5C867.3828125,521.6666666666666,867.3828125,504.8333333333333,867.3828125,488C867.3828125,471.1666666666667,867.3828125,454.3333333333333,867.3828125,437.5C867.3828125,420.6666666666667,867.3828125,403.8333333333333,867.3828125,387C867.3828125,370.1666666666667,867.3828125,353.3333333333333,867.3828125,336.5C867.3828125,319.6666666666667,867.3828125,302.8333333333333,845.62890625,289.5957241954654C823.875,276.3581150575974,780.3671875,266.7162301151947,758.61328125,261.8952876439934L736.859375,257.0743451727921" id="L-TaskOutcome-Claim-0" class=" edge-thickness-normal edge-pattern-solid flowchart-link LS-TaskOutcome LE-Claim" style="fill:none;" marker-end="url(#flowchart-pointEnd)"></path><path d="M185.5625,2193.75L185.47916666666666,2199.3333333333335C185.39583333333334,2204.9166666666665,185.22916666666666,2216.0833333333335,185.14583333333334,2227.3333333333335C185.0625,2238.5833333333335,185.0625,2249.9166666666665,185.0625,2255.5833333333335L185.0625,2261.25" id="L-TaskOutcome-Cascade-0" class=" edge-thickness-normal edge-pattern-solid flowchart-link LS-TaskOutcome LE-Cascade" style="fill:none;" marker-end="url(#flowchart-pointEnd)"></path><path d="M185.0625,2312.25L185.0625,2316.4166666666665C185.0625,2320.5833333333335,185.0625,2328.9166666666665,234.72287842245896,2346.7042049108745C284.3832568449179,2364.491743155082,383.70401368983585,2391.733486310164,433.3643921122948,2405.354357887705L483.02477053475377,2418.9752294652462" id="L-Cascade-More-0" class=" edge-thickness-normal edge-pattern-solid flowchart-link LS-Cascade LE-More" style="fill:none;" marker-end="url(#flowchart-pointEnd)"></path><path d="M379.66148657773033,1643.9791384222697L413.3110044397752,1658.5086570185579C446.9605223018202,1673.0381756148465,514.2595580259101,1702.0972128074234,547.909075887955,1726.5433980703783C581.55859375,1750.9895833333333,581.55859375,1770.8229166666667,581.55859375,1789.15625C581.55859375,1807.4895833333333,581.55859375,1824.3229166666667,581.55859375,1841.15625C581.55859375,1857.9895833333333,581.55859375,1874.8229166666667,581.55859375,1893.15625C581.55859375,1911.4895833333333,581.55859375,1931.3229166666667,581.55859375,1964.2473958333333C581.55859375,1997.171875,581.55859375,2043.1875,581.55859375,2089.203125C581.55859375,2135.21875,581.55859375,2181.234375,581.55859375,2214.1588541666665C581.55859375,2247.0833333333335,581.55859375,2266.9166666666665,581.55859375,2285.25C581.55859375,2303.5833333333335,581.55859375,2320.4166666666665,578.1710194666987,2336.747191341699C574.7834451833974,2353.077716016731,568.0082966167946,2368.9054320334612,564.6207223334933,2376.8192900418267L561.233148050192,2384.733148050192" id="L-Path-More-0" class=" edge-thickness-normal edge-pattern-solid flowchart-link LS-Path LE-More" style="fill:none;" marker-end="url(#flowchart-pointEnd)"></path><path d="M597.959375499931,2421.459375499931L661.5253910416092,2407.424479583276C725.0914065832873,2393.3895836666206,852.2234376666437,2365.3197918333103,915.7894532083219,2342.8682292499884C979.35546875,2320.4166666666665,979.35546875,2303.5833333333335,979.35546875,2285.25C979.35546875,2266.9166666666665,979.35546875,2247.0833333333335,979.35546875,2214.1588541666665C979.35546875,2181.234375,979.35546875,2135.21875,979.35546875,2089.203125C979.35546875,2043.1875,979.35546875,1997.171875,979.35546875,1964.2473958333333C979.35546875,1931.3229166666667,979.35546875,1911.4895833333333,979.35546875,1893.15625C979.35546875,1874.8229166666667,979.35546875,1857.9895833333333,979.35546875,1841.15625C979.35546875,1824.3229166666667,979.35546875,1807.4895833333333,979.35546875,1789.15625C979.35546875,1770.8229166666667,979.35546875,1750.9895833333333,979.35546875,1722.5846354166667C979.35546875,1694.1796875,979.35546875,1657.203125,979.35546875,1621.7265625C979.35546875,1586.25,979.35546875,1552.2734375,979.35546875,1511.0338541666667C979.35546875,1469.7942708333333,979.35546875,1421.2916666666667,979.35546875,1372.7890625C979.35546875,1324.2864583333333,979.35546875,1275.7838541666667,979.35546875,1243.1158854166667C979.35546875,1210.4479166666667,979.35546875,1193.6145833333333,979.35546875,1176.78125C979.35546875,1159.9479166666667,979.35546875,1143.1145833333333,979.35546875,1126.28125C979.35546875,1109.4479166666667,979.35546875,1092.6145833333333,979.35546875,1074.28125C979.35546875,1055.9479166666667,979.35546875,1036.1145833333333,979.35546875,1006.6744791666666C979.35546875,977.234375,979.35546875,938.1875,979.35546875,900.640625C979.35546875,863.09375,979.35546875,827.046875,979.35546875,800.6067708333334C979.35546875,774.1666666666666,979.35546875,757.3333333333334,979.35546875,740.5C979.35546875,723.6666666666666,979.35546875,706.8333333333334,979.35546875,690C979.35546875,673.1666666666666,979.35546875,656.3333333333334,979.35546875,639.5C979.35546875,622.6666666666666,979.35546875,605.8333333333334,979.35546875,589C979.35546875,572.1666666666666,979.35546875,555.3333333333334,979.35546875,538.5C979.35546875,521.6666666666666,979.35546875,504.8333333333333,979.35546875,488C979.35546875,471.1666666666667,979.35546875,454.3333333333333,979.35546875,437.5C979.35546875,420.6666666666667,979.35546875,403.8333333333333,979.35546875,387C979.35546875,370.1666666666667,979.35546875,353.3333333333333,979.35546875,336.5C979.35546875,319.6666666666667,979.35546875,302.8333333333333,979.35546875,286C979.35546875,269.1666666666667,979.35546875,252.33333333333334,979.35546875,235.5C979.35546875,218.66666666666666,979.35546875,201.83333333333334,979.35546875,185C979.35546875,168.16666666666666,979.35546875,151.33333333333334,979.35546875,134.5C979.35546875,117.66666666666667,979.35546875,100.83333333333333,954.5598958333334,87.84120039965744C929.7643229166666,74.84906746598153,880.1731770833334,65.69813493196308,855.3776041666666,61.12266866495384L830.58203125,56.547202397944616" id="L-More-Dispatch-0" class=" edge-thickness-normal edge-pattern-solid flowchart-link LS-More LE-Dispatch" style="fill:none;" marker-end="url(#flowchart-pointEnd)"></path><path d="M539.25,2505.90625L539.1666666666666,2511.4895833333335C539.0833333333334,2517.0729166666665,538.9166666666666,2528.2395833333335,538.8333333333334,2539.4895833333335C538.75,2550.7395833333335,538.75,2562.0729166666665,538.75,2567.7395833333335L538.75,2573.40625" id="L-More-Final-0" class=" edge-thickness-normal edge-pattern-solid flowchart-link LS-More LE-Final" style="fill:none;" marker-end="url(#flowchart-pointEnd)"></path><path d="M538.75,2606.40625L538.75,2610.5729166666665C538.75,2614.7395833333335,538.75,2623.0729166666665,538.75,2631.40625C538.75,2639.7395833333335,538.75,2648.0729166666665,538.75,2652.2395833333335L538.75,2656.40625" id="L-Final-Complete-0" class=" edge-thickness-normal edge-pattern-solid flowchart-link LS-Final LE-Complete" style="fill:none;" marker-end="url(#flowchart-pointEnd)"></path><path d="M538.75,2707.40625L538.75,2711.5729166666665C538.75,2715.7395833333335,538.75,2724.0729166666665,538.75,2732.40625C538.75,2740.7395833333335,538.75,2749.0729166666665,538.75,2753.2395833333335L538.75,2757.40625" id="L-Complete-Audit-0" class=" edge-thickness-normal edge-pattern-solid flowchart-link LS-Complete LE-Audit" style="fill:none;" marker-end="url(#flowchart-pointEnd)"></path><path d="M538.75,2808.40625L538.75,2812.5729166666665C538.75,2816.7395833333335,538.75,2825.0729166666665,538.75,2833.40625C538.75,2841.7395833333335,538.75,2850.0729166666665,538.75,2854.2395833333335L538.75,2858.40625" id="L-Audit-Retro-0" class=" edge-thickness-normal edge-pattern-solid flowchart-link LS-Audit LE-Retro" style="fill:none;" marker-end="url(#flowchart-pointEnd)"></path></g><g class="edgeLabels"><g class="edgeLabel"><g class="label" transform="translate(0, 0)"><foreignObject width="0" height="0"><div xmlns="http://www.w3.org/1999/xhtml" style="display: inline-block; white-space: nowrap;"><span class="edgeLabel"></span></div></foreignObject></g></g><g class="edgeLabel"><g class="label" transform="translate(0, 0)"><foreignObject width="0" height="0"><div xmlns="http://www.w3.org/1999/xhtml" style="display: inline-block; white-space: nowrap;"><span class="edgeLabel"></span></div></foreignObject></g></g><g class="edgeLabel"><g class="label" transform="translate(0, 0)"><foreignObject width="0" height="0"><div xmlns="http://www.w3.org/1999/xhtml" style="display: inline-block; white-space: nowrap;"><span class="edgeLabel"></span></div></foreignObject></g></g><g class="edgeLabel"><g class="label" transform="translate(0, 0)"><foreignObject width="0" height="0"><div xmlns="http://www.w3.org/1999/xhtml" style="display: inline-block; white-space: nowrap;"><span class="edgeLabel"></span></div></foreignObject></g></g><g class="edgeLabel"><g class="label" transform="translate(0, 0)"><foreignObject width="0" height="0"><div xmlns="http://www.w3.org/1999/xhtml" style="display: inline-block; white-space: nowrap;"><span class="edgeLabel"></span></div></foreignObject></g></g><g class="edgeLabel"><g class="label" transform="translate(0, 0)"><foreignObject width="0" height="0"><div xmlns="http://www.w3.org/1999/xhtml" style="display: inline-block; white-space: nowrap;"><span class="edgeLabel"></span></div></foreignObject></g></g><g class="edgeLabel"><g class="label" transform="translate(0, 0)"><foreignObject width="0" height="0"><div xmlns="http://www.w3.org/1999/xhtml" style="display: inline-block; white-space: nowrap;"><span class="edgeLabel"></span></div></foreignObject></g></g><g class="edgeLabel"><g class="label" transform="translate(0, 0)"><foreignObject width="0" height="0"><div xmlns="http://www.w3.org/1999/xhtml" style="display: inline-block; white-space: nowrap;"><span class="edgeLabel"></span></div></foreignObject></g></g><g class="edgeLabel" transform="translate(109.3359375, 1016.28125)"><g class="label" transform="translate(-61.8203125, -9)"><foreignObject width="123.640625" height="18"><div xmlns="http://www.w3.org/1999/xhtml" style="display: inline-block; white-space: nowrap;"><span class="edgeLabel">changes required</span></div></foreignObject></g></g><g class="edgeLabel"><g class="label" transform="translate(0, 0)"><foreignObject width="0" height="0"><div xmlns="http://www.w3.org/1999/xhtml" style="display: inline-block; white-space: nowrap;"><span class="edgeLabel"></span></div></foreignObject></g></g><g class="edgeLabel"><g class="label" transform="translate(0, 0)"><foreignObject width="0" height="0"><div xmlns="http://www.w3.org/1999/xhtml" style="display: inline-block; white-space: nowrap;"><span class="edgeLabel"></span></div></foreignObject></g></g><g class="edgeLabel" transform="translate(744.640625, 1016.28125)"><g class="label" transform="translate(-12.453125, -9)"><foreignObject width="24.90625" height="18"><div xmlns="http://www.w3.org/1999/xhtml" style="display: inline-block; white-space: nowrap;"><span class="edgeLabel">yes</span></div></foreignObject></g></g><g class="edgeLabel" transform="translate(648.16015625, 1075.78125)"><g class="label" transform="translate(-8.8984375, -9)"><foreignObject width="17.796875" height="18"><div xmlns="http://www.w3.org/1999/xhtml" style="display: inline-block; white-space: nowrap;"><span class="edgeLabel">no</span></div></foreignObject></g></g><g class="edgeLabel" transform="translate(409.578125, 1016.28125)"><g class="label" transform="translate(-33.359375, -9)"><foreignObject width="66.71875" height="18"><div xmlns="http://www.w3.org/1999/xhtml" style="display: inline-block; white-space: nowrap;"><span class="edgeLabel">approved</span></div></foreignObject></g></g><g class="edgeLabel"><g class="label" transform="translate(0, 0)"><foreignObject width="0" height="0"><div xmlns="http://www.w3.org/1999/xhtml" style="display: inline-block; white-space: nowrap;"><span class="edgeLabel"></span></div></foreignObject></g></g><g class="edgeLabel"><g class="label" transform="translate(0, 0)"><foreignObject width="0" height="0"><div xmlns="http://www.w3.org/1999/xhtml" style="display: inline-block; white-space: nowrap;"><span class="edgeLabel"></span></div></foreignObject></g></g><g class="edgeLabel"><g class="label" transform="translate(0, 0)"><foreignObject width="0" height="0"><div xmlns="http://www.w3.org/1999/xhtml" style="display: inline-block; white-space: nowrap;"><span class="edgeLabel"></span></div></foreignObject></g></g><g class="edgeLabel" transform="translate(185.0625, 1731.15625)"><g class="label" transform="translate(-62.2421875, -9)"><foreignObject width="124.484375" height="18"><div xmlns="http://www.w3.org/1999/xhtml" style="display: inline-block; white-space: nowrap;"><span class="edgeLabel">formal Task entity</span></div></foreignObject></g></g><g class="edgeLabel"><g class="label" transform="translate(0, 0)"><foreignObject width="0" height="0"><div xmlns="http://www.w3.org/1999/xhtml" style="display: inline-block; white-space: nowrap;"><span class="edgeLabel"></span></div></foreignObject></g></g><g class="edgeLabel"><g class="label" transform="translate(0, 0)"><foreignObject width="0" height="0"><div xmlns="http://www.w3.org/1999/xhtml" style="display: inline-block; white-space: nowrap;"><span class="edgeLabel"></span></div></foreignObject></g></g><g class="edgeLabel" transform="translate(867.3828125, 1016.28125)"><g class="label" transform="translate(-59.140625, -9)"><foreignObject width="118.28125" height="18"><div xmlns="http://www.w3.org/1999/xhtml" style="display: inline-block; white-space: nowrap;"><span class="edgeLabel">revision required</span></div></foreignObject></g></g><g class="edgeLabel" transform="translate(185.0625, 2227.25)"><g class="label" transform="translate(-33.359375, -9)"><foreignObject width="66.71875" height="18"><div xmlns="http://www.w3.org/1999/xhtml" style="display: inline-block; white-space: nowrap;"><span class="edgeLabel">approved</span></div></foreignObject></g></g><g class="edgeLabel"><g class="label" transform="translate(0, 0)"><foreignObject width="0" height="0"><div xmlns="http://www.w3.org/1999/xhtml" style="display: inline-block; white-space: nowrap;"><span class="edgeLabel"></span></div></foreignObject></g></g><g class="edgeLabel" transform="translate(581.55859375, 1951.15625)"><g class="label" transform="translate(-72.9375, -9)"><foreignObject width="145.875" height="18"><div xmlns="http://www.w3.org/1999/xhtml" style="display: inline-block; white-space: nowrap;"><span class="edgeLabel">thread-dispatch path</span></div></foreignObject></g></g><g class="edgeLabel" transform="translate(979.35546875, 1016.28125)"><g class="label" transform="translate(-12.453125, -9)"><foreignObject width="24.90625" height="18"><div xmlns="http://www.w3.org/1999/xhtml" style="display: inline-block; white-space: nowrap;"><span class="edgeLabel">yes</span></div></foreignObject></g></g><g class="edgeLabel" transform="translate(538.75, 2539.40625)"><g class="label" transform="translate(-8.8984375, -9)"><foreignObject width="17.796875" height="18"><div xmlns="http://www.w3.org/1999/xhtml" style="display: inline-block; white-space: nowrap;"><span class="edgeLabel">no</span></div></foreignObject></g></g><g class="edgeLabel"><g class="label" transform="translate(0, 0)"><foreignObject width="0" height="0"><div xmlns="http://www.w3.org/1999/xhtml" style="display: inline-block; white-space: nowrap;"><span class="edgeLabel"></span></div></foreignObject></g></g><g class="edgeLabel"><g class="label" transform="translate(0, 0)"><foreignObject width="0" height="0"><div xmlns="http://www.w3.org/1999/xhtml" style="display: inline-block; white-space: nowrap;"><span class="edgeLabel"></span></div></foreignObject></g></g><g class="edgeLabel"><g class="label" transform="translate(0, 0)"><foreignObject width="0" height="0"><div xmlns="http://www.w3.org/1999/xhtml" style="display: inline-block; white-space: nowrap;"><span class="edgeLabel"></span></div></foreignObject></g></g></g><g class="nodes"><g class="node default architect" id="flowchart-Dispatch-58" transform="translate(705.68359375, 33.5)"><rect class="basic label-container" style="" rx="0" ry="0" x="-124.8984375" y="-25.5" width="249.796875" height="51"></rect><g class="label" style="" transform="translate(-117.3984375, -18)"><foreignObject width="234.796875" height="36"><div xmlns="http://www.w3.org/1999/xhtml" style="display: inline-block; white-space: nowrap;"><span class="nodeLabel">Architect dispatches wave thread<br/>mission correlationId</span></div></foreignObject></g></g><g class="node default system" id="flowchart-Available-59" transform="translate(639.5078125, 134.5)"><rect class="basic label-container" style="" rx="0" ry="0" x="-95.109375" y="-25.5" width="190.21875" height="51"></rect><g class="label" style="" transform="translate(-87.609375, -18)"><foreignObject width="175.21875" height="36"><div xmlns="http://www.w3.org/1999/xhtml" style="display: inline-block; white-space: nowrap;"><span class="nodeLabel">Hub surfaces wave<br/>thread / message / pulse</span></div></foreignObject></g></g><g class="node default engineer" id="flowchart-Claim-61" transform="translate(639.5078125, 235.5)"><rect class="basic label-container" style="" rx="0" ry="0" x="-97.3515625" y="-25.5" width="194.703125" height="51"></rect><g class="label" style="" transform="translate(-89.8515625, -18)"><foreignObject width="179.703125" height="36"><div xmlns="http://www.w3.org/1999/xhtml" style="display: inline-block; white-space: nowrap;"><span class="nodeLabel">Engineer engages thread<br/>claims wave or task</span></div></foreignObject></g></g><g class="node default engineer" id="flowchart-TraceStart-63" transform="translate(561.75390625, 336.5)"><rect class="basic label-container" style="" rx="0" ry="0" x="-109.3359375" y="-25.5" width="218.671875" height="51"></rect><g class="label" style="" transform="translate(-101.8359375, -18)"><foreignObject width="203.671875" height="36"><div xmlns="http://www.w3.org/1999/xhtml" style="display: inline-block; white-space: nowrap;"><span class="nodeLabel">Engineer updates work trace<br/>resumption + in-flight</span></div></foreignObject></g></g><g class="node default github" id="flowchart-Branch-65" transform="translate(561.75390625, 437.5)"><rect class="basic label-container" style="" rx="0" ry="0" x="-85.328125" y="-25.5" width="170.65625" height="51"></rect><g class="label" style="" transform="translate(-77.828125, -18)"><foreignObject width="155.65625" height="36"><div xmlns="http://www.w3.org/1999/xhtml" style="display: inline-block; white-space: nowrap;"><span class="nodeLabel">Create feature branch<br/>push commits</span></div></foreignObject></g></g><g class="node default github" id="flowchart-PR-67" transform="translate(561.75390625, 538.5)"><rect class="basic label-container" style="" rx="0" ry="0" x="-118.890625" y="-25.5" width="237.78125" height="51"></rect><g class="label" style="" transform="translate(-111.390625, -18)"><foreignObject width="222.78125" height="36"><div xmlns="http://www.w3.org/1999/xhtml" style="display: inline-block; white-space: nowrap;"><span class="nodeLabel">Open PR<br/>mission/task context + test plan</span></div></foreignObject></g></g><g class="node default default" id="flowchart-Notify-69" transform="translate(561.75390625, 639.5)"><rect class="basic label-container" style="" rx="0" ry="0" x="-69.3046875" y="-25.5" width="138.609375" height="51"></rect><g class="label" style="" transform="translate(-61.8046875, -18)"><foreignObject width="123.609375" height="36"><div xmlns="http://www.w3.org/1999/xhtml" style="display: inline-block; white-space: nowrap;"><span class="nodeLabel">Notify Architect<br/>PR-review thread</span></div></foreignObject></g></g><g class="node default architect" id="flowchart-Review-71" transform="translate(497.23046875, 740.5)"><rect class="basic label-container" style="" rx="0" ry="0" x="-94.046875" y="-25.5" width="188.09375" height="51"></rect><g class="label" style="" transform="translate(-86.546875, -18)"><foreignObject width="173.09375" height="36"><div xmlns="http://www.w3.org/1999/xhtml" style="display: inline-block; white-space: nowrap;"><span class="nodeLabel">Architect reviews PR diff<br/>CI status</span></div></foreignObject></g></g><g class="node default decision" id="flowchart-Outcome-73" transform="translate(325.484375, 899.140625)"><polygon points="83.140625,0 166.28125,-83.140625 83.140625,-166.28125 0,-83.140625" class="label-container" transform="translate(-83.140625,83.140625)" style=""></polygon><g class="label" style="" transform="translate(-59.140625, -9)"><foreignObject width="118.28125" height="18"><div xmlns="http://www.w3.org/1999/xhtml" style="display: inline-block; white-space: nowrap;"><span class="nodeLabel">Review outcome</span></div></foreignObject></g></g><g class="node default architect" id="flowchart-Changes-75" transform="translate(109.3359375, 1075.78125)"><rect class="basic label-container" style="" rx="0" ry="0" x="-99.984375" y="-25.5" width="199.96875" height="51"></rect><g class="label" style="" transform="translate(-92.484375, -18)"><foreignObject width="184.96875" height="36"><div xmlns="http://www.w3.org/1999/xhtml" style="display: inline-block; white-space: nowrap;"><span class="nodeLabel">Request changes<br/>reply on PR-review thread</span></div></foreignObject></g></g><g class="node default engineer" id="flowchart-Revise-77" transform="translate(109.3359375, 1176.78125)"><rect class="basic label-container" style="" rx="0" ry="0" x="-101.3359375" y="-16.5" width="202.671875" height="33"></rect><g class="label" style="" transform="translate(-93.8359375, -9)"><foreignObject width="187.671875" height="18"><div xmlns="http://www.w3.org/1999/xhtml" style="display: inline-block; white-space: nowrap;"><span class="nodeLabel">Engineer pushes revisions</span></div></foreignObject></g></g><g class="node default decision" id="flowchart-ScopeChanged-79" transform="translate(627.78125, 1372.7890625)"><polygon points="120.5078125,0 241.015625,-120.5078125 120.5078125,-241.015625 0,-120.5078125" class="label-container" transform="translate(-120.5078125,120.5078125)" style=""></polygon><g class="label" style="" transform="translate(-96.5078125, -9)"><foreignObject width="193.015625" height="18"><div xmlns="http://www.w3.org/1999/xhtml" style="display: inline-block; white-space: nowrap;"><span class="nodeLabel">Scope changed materially?</span></div></foreignObject></g></g><g class="node default github" id="flowchart-Merge-85" transform="translate(409.578125, 1075.78125)"><rect class="basic label-container" style="" rx="0" ry="0" x="-150.2578125" y="-25.5" width="300.515625" height="51"></rect><g class="label" style="" transform="translate(-142.7578125, -18)"><foreignObject width="285.515625" height="36"><div xmlns="http://www.w3.org/1999/xhtml" style="display: inline-block; white-space: nowrap;"><span class="nodeLabel">Approve and merge<br/>queue or admin squash when warranted</span></div></foreignObject></g></g><g class="node default architect" id="flowchart-Seal-87" transform="translate(409.578125, 1176.78125)"><rect class="basic label-container" style="" rx="0" ry="0" x="-88.421875" y="-25.5" width="176.84375" height="51"></rect><g class="label" style="" transform="translate(-80.921875, -18)"><foreignObject width="161.84375" height="36"><div xmlns="http://www.w3.org/1999/xhtml" style="display: inline-block; white-space: nowrap;"><span class="nodeLabel">Seal PR-review thread<br/>convergence summary</span></div></foreignObject></g></g><g class="node default github" id="flowchart-TraceDone-89" transform="translate(325.484375, 1372.7890625)"><rect class="basic label-container" style="" rx="0" ry="0" x="-110.8828125" y="-25.5" width="221.765625" height="51"></rect><g class="label" style="" transform="translate(-103.3828125, -18)"><foreignObject width="206.765625" height="36"><div xmlns="http://www.w3.org/1999/xhtml" style="display: inline-block; white-space: nowrap;"><span class="nodeLabel">Engineer updates work trace<br/>landed commits + verification</span></div></foreignObject></g></g><g class="node default decision" id="flowchart-Path-91" transform="translate(325.484375, 1620.2265625)"><polygon points="76.9296875,0 153.859375,-76.9296875 76.9296875,-153.859375 0,-76.9296875" class="label-container" transform="translate(-76.9296875,76.9296875)" style=""></polygon><g class="label" style="" transform="translate(-52.9296875, -9)"><foreignObject width="105.859375" height="18"><div xmlns="http://www.w3.org/1999/xhtml" style="display: inline-block; white-space: nowrap;"><span class="nodeLabel">Execution path</span></div></foreignObject></g></g><g class="node default engineer" id="flowchart-Report-93" transform="translate(185.0625, 1790.65625)"><rect class="basic label-container" style="" rx="0" ry="0" x="-106.8828125" y="-25.5" width="213.765625" height="51"></rect><g class="label" style="" transform="translate(-99.3828125, -18)"><foreignObject width="198.765625" height="36"><div xmlns="http://www.w3.org/1999/xhtml" style="display: inline-block; white-space: nowrap;"><span class="nodeLabel">Engineer create_report<br/>landed commit + verification</span></div></foreignObject></g></g><g class="node default architect" id="flowchart-HubReview-95" transform="translate(185.0625, 1891.65625)"><rect class="basic label-container" style="" rx="0" ry="0" x="-113.7890625" y="-25.5" width="227.578125" height="51"></rect><g class="label" style="" transform="translate(-106.2890625, -18)"><foreignObject width="212.578125" height="36"><div xmlns="http://www.w3.org/1999/xhtml" style="display: inline-block; white-space: nowrap;"><span class="nodeLabel">Architect create_review<br/>approved or revision_required</span></div></foreignObject></g></g><g class="node default decision" id="flowchart-TaskOutcome-97" transform="translate(185.0625, 2089.203125)"><polygon points="104.046875,0 208.09375,-104.046875 104.046875,-208.09375 0,-104.046875" class="label-container" transform="translate(-104.046875,104.046875)" style=""></polygon><g class="label" style="" transform="translate(-80.046875, -9)"><foreignObject width="160.09375" height="18"><div xmlns="http://www.w3.org/1999/xhtml" style="display: inline-block; white-space: nowrap;"><span class="nodeLabel">Hub review approved?</span></div></foreignObject></g></g><g class="node default system" id="flowchart-Cascade-101" transform="translate(185.0625, 2286.75)"><rect class="basic label-container" style="" rx="0" ry="0" x="-105.34375" y="-25.5" width="210.6875" height="51"></rect><g class="label" style="" transform="translate(-97.84375, -18)"><foreignObject width="195.6875" height="36"><div xmlns="http://www.w3.org/1999/xhtml" style="display: inline-block; white-space: nowrap;"><span class="nodeLabel">Hub plannedTasks cascade<br/>issues next task</span></div></foreignObject></g></g><g class="node default decision" id="flowchart-More-103" transform="translate(538.75, 2433.828125)"><polygon points="71.578125,0 143.15625,-71.578125 71.578125,-143.15625 0,-71.578125" class="label-container" transform="translate(-71.578125,71.578125)" style=""></polygon><g class="label" style="" transform="translate(-47.578125, -9)"><foreignObject width="95.15625" height="18"><div xmlns="http://www.w3.org/1999/xhtml" style="display: inline-block; white-space: nowrap;"><span class="nodeLabel">More waves?</span></div></foreignObject></g></g><g class="node default default" id="flowchart-Final-109" transform="translate(538.75, 2589.90625)"><rect class="basic label-container" style="" rx="0" ry="0" x="-80.421875" y="-16.5" width="160.84375" height="33"></rect><g class="label" style="" transform="translate(-72.921875, -9)"><foreignObject width="145.84375" height="18"><div xmlns="http://www.w3.org/1999/xhtml" style="display: inline-block; white-space: nowrap;"><span class="nodeLabel">Final wave complete</span></div></foreignObject></g></g><g class="node default architect" id="flowchart-Complete-111" transform="translate(538.75, 2681.90625)"><rect class="basic label-container" style="" rx="0" ry="0" x="-108.421875" y="-25.5" width="216.84375" height="51"></rect><g class="label" style="" transform="translate(-100.921875, -18)"><foreignObject width="201.84375" height="36"><div xmlns="http://www.w3.org/1999/xhtml" style="display: inline-block; white-space: nowrap;"><span class="nodeLabel">Architect sets Mission status<br/>active to completed</span></div></foreignObject></g></g><g class="node default engineer" id="flowchart-Audit-113" transform="translate(538.75, 2782.90625)"><rect class="basic label-container" style="" rx="0" ry="0" x="-86.21875" y="-25.5" width="172.4375" height="51"></rect><g class="label" style="" transform="translate(-78.71875, -18)"><foreignObject width="157.4375" height="36"><div xmlns="http://www.w3.org/1999/xhtml" style="display: inline-block; white-space: nowrap;"><span class="nodeLabel">Engineer closing audit<br/>or final verification</span></div></foreignObject></g></g><g class="node default architect" id="flowchart-Retro-115" transform="translate(538.75, 2883.90625)"><rect class="basic label-container" style="" rx="0" ry="0" x="-86.640625" y="-25.5" width="173.28125" height="51"></rect><g class="label" style="" transform="translate(-79.140625, -18)"><foreignObject width="158.28125" height="36"><div xmlns="http://www.w3.org/1999/xhtml" style="display: inline-block; white-space: nowrap;"><span class="nodeLabel">Architect retrospective<br/>when selected</span></div></foreignObject></g></g></g></g></g></svg>